<svg xmlns="http://www.w3.org/2000/svg" viewBox="0 0 390.99999999999994 451.95" preserveAspectRatio="xMidYMid meet" class="css-88gl6m" id="aaffafde"><defs id="SvgjsDefs1647"/><g id="SvgjsG1648" featurekey="rootContainer" transform="matrix(1.15,0,0,1.15,-5.75,0)" fill="#111"><path xmlns="http://www.w3.org/2000/svg" fill-rule="evenodd" d="M5,65 L175,0 L345, 65 L175, 10 z M5,313 L175,393 L345,308 L175, 383 z"/></g><g id="SvgjsG1649" featurekey="symbolFeature-0" transform="matrix(1.7026754130689246,0,0,1.7026754130689246,111.05566370729423,92.48262043079257)" fill="#111"><g xmlns="http://www.w3.org/2000/svg"><g><path d="M34.5,25.6L30.1,39l9.5-3.5c-0.2-0.4-0.2-0.9,0-1.3L44,20.8l-9.5,3.5C34.7,24.7,34.7,25.1,34.5,25.6z"/><path d="M62,15.5l-4.5,13.4l9.5-3.5c-0.2-0.4-0.2-0.9,0-1.3l4.5-13.4L62,14.2C62.1,14.6,62.1,15.1,62,15.5z"/><path d="M48.3,20.5L43.8,34l9.5-3.5c-0.2-0.4-0.2-0.9,0-1.3l4.5-13.4l-9.5,3.5C48.4,19.6,48.4,20.1,48.3,20.5z"/><path d="M20.8,30.6L16.4,44c0.1,0,0.1,0,0.2,0l9.3-3.4c-0.2-0.4-0.2-0.9,0-1.3l4.5-13.4l-9.5,3.5C20.9,29.7,20.9,30.2,20.8,30.6z"/><path d="M12.3,32.4c-1.4,0.5-2.1,2.1-1.6,3.5l2.2,6l3.7-11L12.3,32.4z"/><path d="M75.7,10.5l-4.5,13.4L83,19.6c1.4-0.5,2.1-2.1,1.6-3.5l-2.4-6.4c-0.5-1.4-2.1-2.1-3.5-1.6l-3,1.1    C75.8,9.6,75.9,10,75.7,10.5z"/><path d="M62.4,55.6l-13-9.9c-0.5-0.4-0.8-1-0.8-1.6H35.2l15.1,11.5H62.4z"/><path d="M86.5,44.1h-14l15.1,11.5h1.9v-8.5C89.5,45.5,88.2,44.1,86.5,44.1z"/><path d="M81,55.6l-13-9.9c-0.5-0.4-0.8-1-0.8-1.6H53.9L69,55.6H81z"/><path d="M13.3,59.6v29.5c0,1.6,1.3,3,3,3h70.3c1.6,0,3-1.3,3-3V59.6L13.3,59.6C13.3,59.6,13.3,59.6,13.3,59.6z"/><path d="M13.3,47.1v8.5c0,0,0,0,0,0h11.8l-11.8-9C13.3,46.8,13.3,47,13.3,47.1z"/><path d="M43.7,55.6l-13-9.9c-0.5-0.4-0.8-1-0.8-1.6H16.6l15.1,11.5H43.7z"/></g></g></g><g id="SvgjsG1650" featurekey="nameFeature-0" transform="matrix(1.7206119448317394,0,0,1.7206119448317394,20.99999917954829,262.59150264446123)" fill="#111"><path d="M10.64 40 l-1.44 -9.88 l-4.04 0 l-1.32 9.88 l-3.84 0 l4.32 -28.6 l5.16 0 l5 28.6 l-3.84 0 z M5.68 26.32 l2.96 0 l-1.52 -10.4 z M22.268 36.24 l5.52 0 l0 3.76 l-9.28 0 l0 -28.72 l3.76 0 l0 24.96 z M35.576 36.24 l5.52 0 l0 3.76 l-9.28 0 l0 -28.72 l3.76 0 l0 24.96 z M50.123999999999995 40.04 l-5 0 l0 -28.52 l5 0 c3.4 0 6.12 2.76 6.12 6.16 l0 16.2 c0 1.64 -0.64 3.2 -1.8 4.36 s-2.68 1.8 -4.32 1.8 z M48.92399999999999 15.36 l0 20.84 l1.2 0 c0.6 0 1.2 -0.24 1.64 -0.68 s0.68 -1 0.68 -1.64 l0 -16.2 c0 -1.28 -1.04 -2.32 -2.32 -2.32 l-1.2 0 z M65.672 40.04 c-3 0 -5.4 -2.44 -5.4 -5.4 l0 -17.96 c0 -2.96 2.4 -5.36 5.4 -5.36 c2.96 0 5.36 2.4 5.36 5.36 l0 17.96 c0 2.96 -2.4 5.4 -5.36 5.4 z M65.672 15.120000000000001 c-0.88 0 -1.56 0.72 -1.56 1.56 l0 17.96 c0 0.88 0.68 1.56 1.56 1.56 c0.84 0 1.56 -0.68 1.56 -1.56 l0 -17.96 c0 -0.84 -0.72 -1.56 -1.56 -1.56 z M90.1 11.440000000000001 l3.84 0 l-3.72 28.56 l-3.96 0 l-2 -14.32 l-1.88 14.32 l-3.96 0 l-4 -28.56 l3.84 0 l2.08 14.72 l1.92 -14.72 l3.84 0 l2.08 14.72 z M107.248 33.44 l0.16 -22.16 l3.84 0 l-0.24 28.88 l-5.96 0 l-3.24 -22.36 l0 22.36 l-3.84 0 l0 -28.88 l6.2 0 z M119.03600000000002 36.24 l5.52 0 l0 3.76 l-9.28 0 l0 -28.72 l3.76 0 l0 24.96 z M133.984 40.04 c-3 0 -5.4 -2.44 -5.4 -5.4 l0 -17.96 c0 -2.96 2.4 -5.36 5.4 -5.36 c2.96 0 5.36 2.4 5.36 5.36 l0 17.96 c0 2.96 -2.4 5.4 -5.36 5.4 z M133.984 15.120000000000001 c-0.88 0 -1.56 0.72 -1.56 1.56 l0 17.96 c0 0.88 0.68 1.56 1.56 1.56 c0.84 0 1.56 -0.68 1.56 -1.56 l0 -17.96 c0 -0.84 -0.72 -1.56 -1.56 -1.56 z M154.012 40 l-1.44 -9.88 l-4.04 0 l-1.32 9.88 l-3.84 0 l4.32 -28.6 l5.16 0 l5 28.6 l-3.84 0 z M149.05200000000002 26.32 l2.96 0 l-1.52 -10.4 z M166.88000000000002 40.04 l-5 0 l0 -28.52 l5 0 c3.4 0 6.12 2.76 6.12 6.16 l0 16.2 c0 1.64 -0.64 3.2 -1.8 4.36 s-2.68 1.8 -4.32 1.8 z M165.68000000000004 15.36 l0 20.84 l1.2 0 c0.6 0 1.2 -0.24 1.64 -0.68 s0.68 -1 0.68 -1.64 l0 -16.2 c0 -1.28 -1.04 -2.32 -2.32 -2.32 l-1.2 0 z M183.788 11.36 l3.84 0 l0 28.76 l-3.84 0 l0 -13.04 l-6.76 0 l0 -15.72 l3.8 0 l0 11.88 l2.96 0 l0 -11.88 z M197.536 40.08 c-3.24 0 -5.88 -2.64 -5.88 -5.88 l0 -22.72 l3.8 0 l0 22.72 c0 1.16 0.92 2.12 2.08 2.12 s2.08 -0.96 2.08 -2.12 l0 -22.72 l3.8 0 l0 22.72 c0 3.24 -2.64 5.88 -5.88 5.88 z"/></g></svg>